<?xml version="1.0" encoding="utf-8"?>
<!-- Generator: Adobe Illustrator 21.0.0, SVG Export Plug-In . SVG Version: 6.00 Build 0)  -->
<svg version="1.1" id="Layer_1" xmlns="http://www.w3.org/2000/svg" xmlns:xlink="http://www.w3.org/1999/xlink" x="0px" y="0px"
	 viewBox="0 0 160 160" style="enable-background:new 0 0 160 160;" xml:space="preserve">
<style type="text/css">
	.st0{fill:#231F20;}
</style>
<g>
	<path class="st0" d="M140,30v120H50V30H140 M142.7,20H47.3c-4.1,0-7.3,3.3-7.3,7.3v125.3c0,4.1,3.3,7.3,7.3,7.3h95.3
		c4.1,0,7.3-3.3,7.3-7.3V27.3C150,23.3,146.7,20,142.7,20L142.7,20z"/>
</g>
<path class="st0" d="M110,10v10l10,0V7.3c0-4.1-3.3-7.3-7.3-7.3l0,0H17.3C13.3,0,10,3.3,10,7.3v125.3c0,4.1,3.3,7.3,7.3,7.3H40l0-10
	H20V10H110"/>
</svg>
