<?xml version="1.0" encoding="utf-8"?>
<!-- Generator: Adobe Illustrator 21.0.0, SVG Export Plug-In . SVG Version: 6.00 Build 0)  -->
<svg version="1.1" id="Layer_3" xmlns="http://www.w3.org/2000/svg" xmlns:xlink="http://www.w3.org/1999/xlink" x="0px" y="0px"
	 viewBox="0 0 160 160" style="enable-background:new 0 0 160 160;" xml:space="preserve">
<style type="text/css">
	.st0{fill:#231F20;}
</style>
<g>
	<g>
		<path class="st0" d="M65.9,40l17.1,17.1l2.9,2.9H90h60v90H10V40H65.9 M70,30H5.7C2.6,30,0,32.6,0,35.7v118.6
			c0,3.2,2.6,5.7,5.7,5.7h148.6c3.2,0,5.7-2.6,5.7-5.7V55.7c0-3.2-2.6-5.7-5.7-5.7H90L70,30L70,30z"/>
	</g>
	<g>
		<path class="st0" d="M140,20v10h-35.9l-10-10H140 M150,10H10v10h70l20,20h50V10L150,10z"/>
	</g>
</g>
</svg>
